{"title":"Yeh Jawaani Hai Deewani 2013 Untouched Scam (DF) Hindi","uid":8525306,"size":781182976,"categoryP":"video","categoryS":"movies","magnet":"?xt=urn:btih:16a9a91354b7a0387b0569fd5d484fd1c6172b95&amp;dn=Yeh+Jawaani+Hai+Deewani+2013+Untouched+Scam+%28DF%29+Hindi&amp;tr=udp%3A%2F%2Ftracker.openbittorrent.com%3A80&amp;tr=udp%3A%2F%2Fopen.demonii.com%3A1337&amp;tr=udp%3A%2F%2Ftracker.coppersurfer.tk%3A6969&amp;tr=udp%3A%2F%2Fexodus.desync.com%3A6969","seeders":1,"leechers":2,"uploader":"SJonam","files":7,"time":1370014991,"description":" &lt;a href=&quot;http://desibbrg.org/images/14540084034206779986.jpg&quot; rel=&quot;nofollow&quot; target=&quot;_NEW&quot;&gt;http://desibbrg.org/images/14540084034206779986.jpg&lt;/a&gt;\n &lt;a href=&quot;\nhttp://desibbrg.org/images/77609047704383780403.jpg&quot; rel=&quot;nofollow&quot; target=&quot;_NEW&quot;&gt;\nhttp://desibbrg.org/images/77609047704383780403.jpg&lt;/a&gt;\n\nMedia Info - \nVideo\nID : 224 (0xE0)\nFormat : MPEG Video\nFormat version : Version 2\nFormat profile : Main@Main\nFormat settings, BVOP : Yes\nFormat settings, Matrix : Default\nFormat settings, GOP : M=3, N=13\nDuration : 2h 31mn\nBit rate mode : Variable\nBit rate : 548 Kbps\nMaximum bit rate : 9 672 Kbps\nWidth : 352 pixels\nHeight : 288 pixels\nDisplay aspect ratio : 4:3\nFrame rate : 25.000 fps\nStandard : PAL\nColor space : YUV\nChroma subsampling : 4:2:0\nBit depth : 8 bits\nScan type : Progressive\nCompression mode : Lossy\nBits/(Pixel*Frame) : 0.216\nStream size : 592 MiB (79%)\n\nAudio\nID : 192 (0xC0)\nFormat : MPEG Audio\nFormat version : Version 1\nFormat profile : Layer 2\nDuration : 2h 31mn\nBit rate mode : Constant\nBit rate : 128 Kbps\nChannel(s) : 2 channels\nSampling rate : 48.0 KHz\nCompression mode : Lossy\nStream size : 138 MiB (19%)\n\nSharer : Team DF\n\nSeeding 24x7... Extreme Seeding...\n\n\nEnjoy!\n","torrent":{"xt":"urn:btih:16a9a91354b7a0387b0569fd5d484fd1c6172b95","amp;dn":"Yeh+Jawaani+Hai+Deewani+2013+Untouched+Scam+%28DF%29+Hindi","amp;tr":["udp%3A%2F%2Ftracker.openbittorrent.com%3A80","udp%3A%2F%2Fopen.demonii.com%3A1337","udp%3A%2F%2Ftracker.coppersurfer.tk%3A6969","udp%3A%2F%2Fexodus.desync.com%3A6969"],"infoHash":"16a9a91354b7a0387b0569fd5d484fd1c6172b95","infoHashBuffer":{"type":"Buffer","data":[22,169,169,19,84,183,160,56,123,5,105,253,93,72,79,209,198,23,43,149]},"announce":[],"urlList":[]}}